<svg width="199" height="63" viewBox="0 0 199 63" fill="none" xmlns="http://www.w3.org/2000/svg">
<path d="M18.76 1.92V7.4H7.32V13.32H15.88V18.64H7.32V30H0.48V1.92H18.76ZM29.195 11.4C29.995 10.1733 30.995 9.21333 32.195 8.52C33.395 7.8 34.7283 7.44 36.195 7.44V14.68H34.315C32.6083 14.68 31.3283 15.0533 30.475 15.8C29.6217 16.52 29.195 17.8 29.195 19.64V30H22.355V7.68H29.195V11.4ZM78.5331 7.44C81.1465 7.44 83.2265 8.29333 84.7731 10C86.3465 11.68 87.1331 14 87.1331 16.96V30H80.3331V17.88C80.3331 16.3867 79.9465 15.2267 79.1731 14.4C78.3998 13.5733 77.3598 13.16 76.0531 13.16C74.7465 13.16 73.7065 13.5733 72.9331 14.4C72.1598 15.2267 71.7731 16.3867 71.7731 17.88V30H64.9331V7.68H71.7731V10.64C72.4665 9.65333 73.3998 8.88 74.5731 8.32C75.7465 7.73333 77.0665 7.44 78.5331 7.44ZM112.086 1.92V7.4H104.646V30H97.8063V7.4H90.3663V1.92H112.086ZM136.559 18.48C136.559 19.12 136.519 19.7867 136.439 20.48H120.959C121.066 21.8667 121.506 22.9333 122.279 23.68C123.079 24.4 124.052 24.76 125.199 24.76C126.906 24.76 128.092 24.04 128.759 22.6H136.039C135.666 24.0667 134.986 25.3867 133.999 26.56C133.039 27.7333 131.826 28.6533 130.359 29.32C128.892 29.9867 127.252 30.32 125.439 30.32C123.252 30.32 121.306 29.8533 119.599 28.92C117.892 27.9867 116.559 26.6533 115.599 24.92C114.639 23.1867 114.159 21.16 114.159 18.84C114.159 16.52 114.626 14.4933 115.559 12.76C116.519 11.0267 117.852 9.69333 119.559 8.76C121.266 7.82667 123.226 7.36 125.439 7.36C127.599 7.36 129.519 7.81333 131.199 8.72C132.879 9.62667 134.186 10.92 135.119 12.6C136.079 14.28 136.559 16.24 136.559 18.48ZM129.559 16.68C129.559 15.5067 129.159 14.5733 128.359 13.88C127.559 13.1867 126.559 12.84 125.359 12.84C124.212 12.84 123.239 13.1733 122.439 13.84C121.666 14.5067 121.186 15.4533 120.999 16.68H129.559ZM153.768 7.44C156.381 7.44 158.461 8.29333 160.008 10C161.581 11.68 162.368 14 162.368 16.96V30H155.568V17.88C155.568 16.3867 155.181 15.2267 154.408 14.4C153.634 13.5733 152.594 13.16 151.288 13.16C149.981 13.16 148.941 13.5733 148.168 14.4C147.394 15.2267 147.008 16.3867 147.008 17.88V30H140.168V7.68H147.008V10.64C147.701 9.65333 148.634 8.88 149.808 8.32C150.981 7.73333 152.301 7.44 153.768 7.44ZM165.761 18.8C165.761 16.5067 166.187 14.4933 167.041 12.76C167.921 11.0267 169.107 9.69333 170.601 8.76C172.094 7.82667 173.761 7.36 175.601 7.36C177.067 7.36 178.401 7.66666 179.601 8.28C180.827 8.89333 181.787 9.72 182.481 10.76V0.4H189.321V30H182.481V26.8C181.841 27.8667 180.921 28.72 179.721 29.36C178.547 30 177.174 30.32 175.601 30.32C173.761 30.32 172.094 29.8533 170.601 28.92C169.107 27.96 167.921 26.6133 167.041 24.88C166.187 23.12 165.761 21.0933 165.761 18.8ZM182.481 18.84C182.481 17.1333 182.001 15.7867 181.041 14.8C180.107 13.8133 178.961 13.32 177.601 13.32C176.241 13.32 175.081 13.8133 174.121 14.8C173.187 15.76 172.721 17.0933 172.721 18.8C172.721 20.5067 173.187 21.8667 174.121 22.88C175.081 23.8667 176.241 24.36 177.601 24.36C178.961 24.36 180.107 23.8667 181.041 22.88C182.001 21.8933 182.481 20.5467 182.481 18.84Z" fill="#FEFEFE"/>
<path d="M49.6244 30.32C47.4377 30.32 45.4644 29.8533 43.7044 28.92C41.971 27.9867 40.5977 26.6533 39.5844 24.92C38.5977 23.1867 38.1044 21.16 38.1044 18.84C38.1044 16.5467 38.611 14.5333 39.6244 12.8C40.6377 11.04 42.0244 9.69333 43.7844 8.76C45.5444 7.82667 47.5177 7.36 49.7044 7.36C51.891 7.36 53.8644 7.82667 55.6244 8.76C57.3844 9.69333 58.771 11.04 59.7844 12.8C60.7977 14.5333 61.3044 16.5467 61.3044 18.84C61.3044 21.1333 60.7844 23.16 59.7444 24.92C58.731 26.6533 57.331 27.9867 55.5444 28.92C53.7844 29.8533 51.811 30.32 49.6244 30.32ZM49.6244 24.4C50.931 24.4 52.0377 23.92 52.9444 22.96C53.8777 22 54.3444 20.6267 54.3444 18.84C54.3444 17.0533 53.891 15.68 52.9844 14.72C52.1044 13.76 51.011 13.28 49.7044 13.28C48.371 13.28 47.2644 13.76 46.3844 14.72C45.5044 15.6533 45.0644 17.0267 45.0644 18.84C45.0644 20.6267 45.491 22 46.3444 22.96C47.2244 23.92 48.3177 24.4 49.6244 24.4ZM113.922 33.92V39.4H106.482V62H99.6422V39.4H92.2022V33.92H113.922ZM127.515 62.32C125.328 62.32 123.355 61.8533 121.595 60.92C119.862 59.9867 118.488 58.6533 117.475 56.92C116.488 55.1867 115.995 53.16 115.995 50.84C115.995 48.5467 116.502 46.5333 117.515 44.8C118.528 43.04 119.915 41.6933 121.675 40.76C123.435 39.8267 125.408 39.36 127.595 39.36C129.782 39.36 131.755 39.8267 133.515 40.76C135.275 41.6933 136.662 43.04 137.675 44.8C138.688 46.5333 139.195 48.5467 139.195 50.84C139.195 53.1333 138.675 55.16 137.635 56.92C136.622 58.6533 135.222 59.9867 133.435 60.92C131.675 61.8533 129.702 62.32 127.515 62.32ZM127.515 56.4C128.822 56.4 129.928 55.92 130.835 54.96C131.768 54 132.235 52.6267 132.235 50.84C132.235 49.0533 131.782 47.68 130.875 46.72C129.995 45.76 128.902 45.28 127.595 45.28C126.262 45.28 125.155 45.76 124.275 46.72C123.395 47.6533 122.955 49.0267 122.955 50.84C122.955 52.6267 123.382 54 124.235 54.96C125.115 55.92 126.208 56.4 127.515 56.4ZM152.984 62.32C150.797 62.32 148.824 61.8533 147.064 60.92C145.33 59.9867 143.957 58.6533 142.944 56.92C141.957 55.1867 141.464 53.16 141.464 50.84C141.464 48.5467 141.97 46.5333 142.984 44.8C143.997 43.04 145.384 41.6933 147.144 40.76C148.904 39.8267 150.877 39.36 153.064 39.36C155.25 39.36 157.224 39.8267 158.984 40.76C160.744 41.6933 162.13 43.04 163.144 44.8C164.157 46.5333 164.664 48.5467 164.664 50.84C164.664 53.1333 164.144 55.16 163.104 56.92C162.09 58.6533 160.69 59.9867 158.904 60.92C157.144 61.8533 155.17 62.32 152.984 62.32ZM152.984 56.4C154.29 56.4 155.397 55.92 156.304 54.96C157.237 54 157.704 52.6267 157.704 50.84C157.704 49.0533 157.25 47.68 156.344 46.72C155.464 45.76 154.37 45.28 153.064 45.28C151.73 45.28 150.624 45.76 149.744 46.72C148.864 47.6533 148.424 49.0267 148.424 50.84C148.424 52.6267 148.85 54 149.704 54.96C150.584 55.92 151.677 56.4 152.984 56.4ZM175.133 32.4V62H168.293V32.4H175.133ZM189.169 62.32C187.223 62.32 185.489 61.9867 183.969 61.32C182.449 60.6533 181.249 59.7467 180.369 58.6C179.489 57.4267 178.996 56.12 178.889 54.68H185.649C185.729 55.4533 186.089 56.08 186.729 56.56C187.369 57.04 188.156 57.28 189.089 57.28C189.943 57.28 190.596 57.12 191.049 56.8C191.529 56.4533 191.769 56.0133 191.769 55.48C191.769 54.84 191.436 54.3733 190.769 54.08C190.103 53.76 189.023 53.4133 187.529 53.04C185.929 52.6667 184.596 52.28 183.529 51.88C182.463 51.4533 181.543 50.8 180.769 49.92C179.996 49.0133 179.609 47.8 179.609 46.28C179.609 45 179.956 43.84 180.649 42.8C181.369 41.7333 182.409 40.8933 183.769 40.28C185.156 39.6667 186.796 39.36 188.689 39.36C191.489 39.36 193.689 40.0533 195.289 41.44C196.916 42.8267 197.849 44.6667 198.089 46.96H191.769C191.663 46.1867 191.316 45.5733 190.729 45.12C190.169 44.6667 189.423 44.44 188.489 44.44C187.689 44.44 187.076 44.6 186.649 44.92C186.223 45.2133 186.009 45.6267 186.009 46.16C186.009 46.8 186.343 47.28 187.009 47.6C187.703 47.92 188.769 48.24 190.209 48.56C191.863 48.9867 193.209 49.4133 194.249 49.84C195.289 50.24 196.196 50.9067 196.969 51.84C197.769 52.7467 198.183 53.9733 198.209 55.52C198.209 56.8267 197.836 58 197.089 59.04C196.369 60.0533 195.316 60.8533 193.929 61.44C192.569 62.0267 190.983 62.32 189.169 62.32Z" fill="white"/>
</svg>
