<svg width="265" height="313" viewBox="0 0 265 313" fill="none" xmlns="http://www.w3.org/2000/svg">
<rect x="128.734" y="7.57593" width="154.196" height="51.3081" transform="rotate(29.3224 128.734 7.57593)" fill="white"/>
<rect x="263.15" y="83.1971" width="142.801" height="57.847" transform="rotate(89.5915 263.15 83.1971)" fill="white"/>
<path d="M103 23L129 7.49996L119 32.5L103.5 52.5L103 23Z" fill="white"/>
<path d="M235.118 243.156L206.5 226.5L235.118 220.5L264 226L235.118 243.156Z" fill="white"/>
<rect x="140.45" y="304.578" width="159.268" height="52.9959" transform="rotate(-150.81 140.45 304.578)" fill="white"/>
<rect x="1.43335" y="226.79" width="147.498" height="59.7499" transform="rotate(-90.5408 1.43335 226.79)" fill="white"/>
<path d="M166.994 288.586L140.176 304.657L150.445 278.811L166.407 258.116L166.994 288.586Z" fill="white"/>
<path d="M30.0057 61.5034L59.6046 78.6387L30.0598 84.9042L0.214457 79.2922L30.0057 61.5034Z" fill="white"/>
</svg>
