<svg width="412" height="412" viewBox="0 0 412 412" fill="none" xmlns="http://www.w3.org/2000/svg">
<path fill-rule="evenodd" clip-rule="evenodd" d="M206 412C319.771 412 412 319.771 412 206C412 92.2293 319.771 0 206 0C92.2294 0 0 92.2293 0 206C0 319.771 92.2294 412 206 412ZM206 383C303.754 383 383 303.754 383 206C383 108.246 303.754 29 206 29C108.246 29 29 108.246 29 206C29 303.754 108.246 383 206 383Z" fill="white"/>
<path fill-rule="evenodd" clip-rule="evenodd" d="M205.5 350C285.305 350 350 285.305 350 205.5C350 125.695 285.305 61 205.5 61C125.695 61 61 125.695 61 205.5C61 285.305 125.695 350 205.5 350ZM205.5 329.658C274.07 329.658 329.658 274.07 329.658 205.5C329.658 136.93 274.07 81.3422 205.5 81.3422C136.93 81.3422 81.3422 136.93 81.3422 205.5C81.3422 274.07 136.93 329.658 205.5 329.658Z" fill="white"/>
<path fill-rule="evenodd" clip-rule="evenodd" d="M206 296C255.706 296 296 255.706 296 206C296 156.294 255.706 116 206 116C156.294 116 116 156.294 116 206C116 255.706 156.294 296 206 296ZM206 283.33C248.708 283.33 283.33 248.708 283.33 206C283.33 163.292 248.708 128.67 206 128.67C163.292 128.67 128.67 163.292 128.67 206C128.67 248.708 163.292 283.33 206 283.33Z" fill="white"/>
<path d="M181.584 209.105H175.15V204.658H181.584C182.533 204.658 183.295 204.5 183.869 204.184C184.455 203.867 184.883 203.434 185.152 202.883C185.434 202.32 185.574 201.688 185.574 200.984C185.574 200.258 185.434 199.584 185.152 198.963C184.883 198.33 184.455 197.82 183.869 197.434C183.295 197.047 182.533 196.854 181.584 196.854H177.225V218H171.494V192.406H181.584C183.623 192.406 185.369 192.775 186.822 193.514C188.287 194.252 189.406 195.266 190.18 196.555C190.965 197.832 191.357 199.297 191.357 200.949C191.357 202.602 190.965 204.037 190.18 205.256C189.406 206.475 188.287 207.424 186.822 208.104C185.369 208.771 183.623 209.105 181.584 209.105ZM215.949 192.406V218H210.236L200.568 201.459V218H194.838V192.406H200.568L210.254 208.947V192.406H215.949ZM240.805 204.482V214.801C240.383 215.281 239.738 215.797 238.871 216.348C238.016 216.898 236.92 217.373 235.584 217.771C234.248 218.158 232.654 218.352 230.803 218.352C229.127 218.352 227.604 218.082 226.232 217.543C224.861 216.992 223.684 216.189 222.699 215.135C221.715 214.068 220.953 212.768 220.414 211.232C219.887 209.697 219.623 207.939 219.623 205.959V204.447C219.623 202.467 219.887 200.709 220.414 199.174C220.941 197.639 221.686 196.344 222.646 195.289C223.607 194.223 224.75 193.414 226.074 192.863C227.398 192.312 228.863 192.037 230.469 192.037C232.754 192.037 234.623 192.406 236.076 193.145C237.529 193.871 238.631 194.879 239.381 196.168C240.143 197.457 240.611 198.939 240.787 200.615H235.268C235.15 199.76 234.916 199.021 234.564 198.4C234.225 197.779 233.738 197.305 233.105 196.977C232.473 196.637 231.652 196.467 230.645 196.467C229.836 196.467 229.104 196.637 228.447 196.977C227.803 197.305 227.258 197.803 226.812 198.471C226.367 199.139 226.027 199.971 225.793 200.967C225.559 201.951 225.441 203.1 225.441 204.412V205.959C225.441 207.271 225.559 208.426 225.793 209.422C226.039 210.418 226.396 211.25 226.865 211.918C227.334 212.574 227.926 213.072 228.641 213.412C229.367 213.752 230.211 213.922 231.172 213.922C231.922 213.922 232.555 213.863 233.07 213.746C233.586 213.617 234.008 213.459 234.336 213.271C234.664 213.072 234.91 212.891 235.074 212.727V208.473H230.521V204.482H240.805Z" fill="white"/>
</svg>
